<!--version="1.0" encoding="utf-8"-->
<svg
    xmlns="http://www.w3.org/2000/svg"
    version="1.1"
    baseProfile="tiny"
    width="100%"
    height=""
    viewBox="0 0 1010 1000">

    <style>
    
    @import url("https://use.typekit.net/xah5shv.css");
    
    
        /*class selectors*/
    
        .clickable {
            cursor: pointer;
        }
    
        .map_reserves {
            stroke-width: 1;
            stroke: #a29282;
            fill: #a29282;
        }
    
        .map_reserves:hover {
            fill: #43446250;
        }
    
        .map_reserve_text {
            font-family: century-gothic;
            font-size: 20px;
            fill: none;
        }
    
        .map_regions {
            stroke-width: 1;
            stroke: #201e2150;
            fill: none;
        }
    
        .map_locations {
            stroke-width: 3;
            stroke: #434462;
            fill: white;
        }
    
        .map_location_text {
            font-family: century-gothic;
            font-size: 20px;
        }
      
        .map_attraction_text {
            font-family: century-gothic;
            font-size: 20px;
            fill: none;
        }
      
        .map_atlantic-ocean {
            font-family: century-gothic;
            font-size: 16px;
            fill: #434462;
            letter-spacing: 7px;
        }
    
        .map_layouts {
            display: none;
        }
    
        .map_attractions {
            fill: #ab292e;
            stroke: #434462;
            stroke-width: 3;
        }
        
    
        @media (max-width: 800px) {
            .map_location_text { 
                fill: #434462;
            }
        }
    
    
        @media (min-width: 801px) {
            .map_locations:hover {
                fill: #434462;
            }
            
            .map_location_text { 
                fill: none;
            }
        }
    
    
      
        /*id selectors*/
    
        @media (min-width: 801px) {
           
            [id^="map_property_location_"]:hover + [id^="map_property_text_"] {
                fill: #434462;
                color: #434462;
            }
        
            [id^="map_reserve_area_"]:hover + [id^="map_reserve_text_"] {
                fill: #434462;
            }
        
            [id^="map_attraction_location_"]:hover + [id^="map_attraction_text_"] {
                fill: #434462;
            }
        }
    
    </style>

  
    <!-- RESERVES -->

    <g>
        <path class="map_reserves" id="map_reserve_area_1" d="m192.66 212.07l3.24 9.2 4.88 4.22 2.03 3.07.4 3.26-1.82 2.68-1.02 2.49 10.76.38.21-5.55-3.25-1.34-1.22-4.8 7.51-1.72 19.09.19 12.18-2.3 4.88 1.73 14.01-2.11.4 3.26 4.27-.58 12.38.96 14.02 2.3 7.51.57 7.19 2.66 7.23 2.71 5.68 0 13.04 3.57 6.1.77 7.92 1.92 8.12-.58 7.92 4.6 22.39-11.4 8.74-13.33.87-.48-5.99-26.83 7.18.52.23-4.73 1.98-.2-1.27-8.76-.66-.15-.05-.43.65-1.14-1.8-2.5-1.22-2.65-.33-.23-5.09-1.58-101.19-.33-2.64 13.28-8.94-2.7-32.89.2-19.29 2.31-6.09-.77 1.21 6.34 3.46 2.89-32.92 21.11z"/>
        <text class="map_reserve_text" id="map_reserve_text_1" x="25" y="950">Etosha National Park</text>
    </g>
  
    <g>
        <path class="map_reserves" id="map_reserve_area_2" d="m139.91 368.71l7.92-4.36 11.77-8.15 6.91-2.08 1.84-.44-12.37-22.89-15.64-29.29-17.69-31.95-16.04-36.92-3.86 1.15-51.58-73.01-7.51-8.1-10.12-20.82-7.52-52.06-1.77-7.88-.92-1.68-1.09.09-7.31 2.33-4.27 3.3-3.19.24-1.55 2.11-.51.24-.71-.07-.38.63-3.15-1.65.25 4.05-.51 2.81.61 2.14-.5.97-.41 2.22-.61 12.4.81 2.32-.1 2.13 1.52 7.16.21 2.99 2.23 8.51.51 5.99 2.33 8.69 1.32 3.47 2.64 2.41 4.98 6.46-.21 2.7 3.25 5.21.21 5.01 2.03 3.85 5.48 5.01 15.03 11.92 5.98 8.23 5.59 6.57 1.02 6.92 5.88 4.41 3.46 5.57 3.65 8.24 3.05 4.6 1.82 8.05 9.14 13.97 12.19 24.45 2.43 6.11 3.05 4.77 7.51 7.05 1.63 4.58 2.23 4.38.41 9.32 6.9 11.6 3.45 15.01 11.58 16.88 2.03 6.44 4.67 5.69z"/>
        <text class="map_reserve_text" id="map_reserve_text_2" x="25" y="950">Skeleton Coast Park</text>
    </g>
  
    <g>
        <path class="map_reserves" id="map_reserve_area_3" d="m168.35 353.68l-8.75 2.52-11.77 8.15-7.92 4.36 10.58 14.69 6.19 7.85.2 2.45 8.74 14.43-1.52 3.77 8.93 8.02 16.04 18.16-1.01 2.35 4.06 3.95 5.58 7.05 3.05 9.67 3.65 5.63.31 4.22 1.83 5.06 5.83.44 8.33-4.6 2.74-.79 2.13-.1 1.83-.47 3.3-2.06 2.64-2.06 1.88-1.9-66.87-110.79z"/>
        <text class="map_reserve_text" id="map_reserve_text_3" x="25" y="950">Dorob National Park</text>
    </g>
  
    <g>
        <path class="map_reserves" id="map_reserve_area_4" d="m212.37 476.45l1.45.22 1.33 32.2-11.46-6.05-4.06-2.66.71-2.81-.3-5.05-2.34 6.27 0 7.19 6.6 19.32-1.11 6.71-.51 11.46 2.8 26.54-4.87 4.45 2.84 15.94 9.75 20.73-2.03 6.46 15.02 18.82-.61 6.82 4.27 8.47 2.03 5.4-2.03 3.77 0 3.31-3.25 7.62.41 6.43 2.64 3.76-.61 2.66 1.52 1.65 1.93 5.04-1.52 2.83-1.73 4.95 1.02 4.39-1.73 1.46 2.24 4.3 2.53 1.92 1.22 2.38-.2 5.2 3.25 4.29 1.4 5.36 26.81-.53.76 48.61 7.92-6.53 9.54-3.45 16.65-.91 14.93 1.27 13.8 5.36 2.7-.36 2.03-11.62 2.23-4.73 3.66-1.09 3.04.18 8.74-6.73-1.91-4.19 5.7-2.14 9.5-2.76-1.47-1.3 4.57-4.6-4.47-2.74-3.66 3.18-6.89.25-5.44 5.38-3.75-3.56-8.02-3.92-5.69-10.76 5.28-12.24-16.24-15.92-6.3 5.31-2.08-14.16 14.52-2.75-1.42-4.96-5.99-2.84 0-1.19 4.57-.37-1.93-3.22-1.12-.18 1.22-2.48-.81-3.67-2.51-2.7 7.57-.56.45-1.05-2.74-3.77.05-.88 2.85-1.65-2.13-7.64-7.01-3.96-3.15-2.68-1.72 3.41-2.14-.09-1.82-8.29-7.52 0-5.85-9.05.61-6.92 7.62-5.64 10.66 2.22 1.62-10.72-12.69-8.79 5.28-8.43-8.31-3.14 4.47-14.66 5.48-3.43.71-5.11-1.32-8.28-4.47-4.09-10.86.47 3.96-8.85-3.45-7.82-7.52-3.36 2.81-33.43 4.87-7.48-11.67-7.87-7.72-.28-1.62 4.49-13.2-.56-2.17-3.44-.35-3.75-4.16 3.19-9.19-7.45-2.54 1.73-4.42-3.94-1.49-3.12-1.88 1.9-2.64 2.06-3.3 2.06-1.83.47-2.13.1-2.74.79-8.33 4.6z"/>
        <text class="map_reserve_text" id="map_reserve_text_4" x="25" y="950">Namib-Naukluft Park</text>
    </g>
  
    <g>
        <path class="map_reserves" id="map_reserve_area_5" d="m238.97 728.2l.73 2.76-.41 3.37-3.55-.09 3.55 3.65-1.11 2.46-.51 5.46 1.22 3.37 7.31 3 4.06 4.5-.36 1.68 1.93 3.14.41 5.4 1.93.18-.15 2.14-.26 1.27-1.27 1.04-.15 4.04-1.06-2.72.35-1.27-.91-.77-3.46 1.54.72 6.26 1.52 0-.41 2.17 1.83 3.9 1.93 3.17-.81 3.35 5.38.73 1.32 2.89-.71 5.52 1.62 3.17.81 7.68 1.73 8.3 6.5 10.64 3.55 3.25 3.35 6.57 4.77 6.12-.71 2.24 1.83 4.77 6.6 6.91 3.86 5.3-.92 1.7 3.25 4.85 9.14 8.78 15.64 12.43 13.6 12.42 6.4 7.14 9.85 6.2.25-2.5.91-1.11.87-.09.76-1.39 1.22.18 2.53-.67 1.83-.22 3.2-1.65.91-2.41 4.6-2.21.73.61-.07 1.34 1.42.49 1.7-.47.71-1.79 2.13-1.6.1-1.25-.55-.94-.18-1.59 1.01-.58 2.29-2.27-1.68-.99-.61-1.87-1.32-.67-.86-1.57.46-2.14 1.52-.23 1.07.9 1.32.53 1.11-.49.26-2.06-1.27-.58-.61-.94.46-.8 1.26.49 2.09-.4.25-.81-1.98-1.3-.25-.98.66-.54 1.42.32 1.17.94 1.32-.59 0-2.14-.03-.53-.33.01-11.96-11.06-33.44-58.35.05-4.97-4.87-10.12-5.49-2.09-5.64-7.76-5.69-.02-2.16-8.45-.15-7.57 10.2.96 2.95-2.69-8.92-3.47-14.93-1.27-16.65.91-9.54 3.45-7.92 6.53-.76-48.61-26.81.53z"/>
        <text class="map_reserve_text" id="map_reserve_text_5" x="25" y="950">Tsau ||Khaeb (Sperrgebiet) National Park</text>
    </g>
  
    <g>
        <path class="map_reserves" id="map_reserve_area_6" d="m684.87 158.81l-27.47-1.46-2.43 8.09-2.85 2.7-3.25 1.35-7.31 14.24-5.58 25.17 4.37 24.13 44.4 5.13.12-79.35z"/>
        <text class="map_reserve_text" id="map_reserve_text_6" x="25" y="950">Khaudum National Park</text>
    </g>
  
    <g>
        <path class="map_reserves" id="map_reserve_area_7" d="m716.45 134.8l5.78 6.77 4.19-.88.56.65.41.05.74-.22.45-.61.67-.37.55-.12.7.32.29-.12.62-.01.51.17.5.03 3.34 4.44-.57 1-3.81 1.39-6.44-.23.49 7.78 114.71-22.18 14.32.19 1.09-.12 6.65-2.03 6.4.65 2.33-4.83 6.32-3.23 0-.75-3.93 1.11-3.63-.19-3.55-1.74 1.37-14.14-.28-.34.02-1.77-150.8 29.33z"/>
        <text class="map_reserve_text" id="map_reserve_text_7" x="25" y="950">Bwabwata National Park</text>
    </g>
  
    <g>
        <path class="map_reserves" id="map_reserve_area_8" d="m155.69 330.26l1.08-.16.4-.35 1.16-.14.92-1.09.35-.17.82-2.66 13.6-6.24 5.23 1.9 5.88-.95 1.22-4.71 1.32-.09-.56-.91 2.19-4.18 2.49-.33 3.19-3.05-.91-7.33-4.11-3.86-9.85-2.76-6.91-13.01-1.62-5.82 2.79-3.73-2.69-1.38-.92-.86-2.28-.14-2.08.47-2.44 1.2-.51 1.38-1.72-.14-.76.91.16-.86-.71-1.7-2.35-2.33-.28-5.12-.46-.39-5.83-2.07-.34-.22-.59.02-.96-.28-.7-.01-1.23.34-.1.3-.23-.02-.43.7.02.61.2.56.39.37.08.46 1.54 3.41 0 .46 2.35 2.48.23.35.12-.27.29-.19 1.79 3.44.38 1.19.42.44.67-.55 2.63-.57-.11 1.68-1.23.67-1.6.4-1.41.17-.42.88.39.59 1.5.44.89 1.18.89 3.06.56.69 1.26-.14 1.81.4 1.22 1.31.4 1.51-.35 1.5-2.34.83-.23.65.3.44 1.41.31.46.81-.43 3.19-2.05 3.28-1.88.72-4.77.38-7.28 2.05-4.54 2.15 15.21 28.5z"/>
        <text class="map_reserve_text" id="map_reserve_text_8" x="25" y="950">Torra Conservancy</text>
    </g>
  
    <g>
        <path class="map_reserves" id="map_reserve_area_9" d="m168.35 353.68l38.63 64.32 2.44 4.04 18.72-7.64-4.67-1.86-.23-.54 1.09-1.11-.38-.47.38-.87.99-1.25.33-1.25.94 0 .79-.55 1.8-2.07.73-1.98-.23-1.28.58-1.25.43-.4.82-.4.73.26.69-.02.73-.52.79.02 1.5-.28.89-.71 1.29-1.09.79-1.27 1.32-.76.2-.61.56-.54.79-.33 1.49-.75.41-.61-.13-.64-.58-.4-.03-.61.41-.66.89-.59 1.24-.05.86-.66.43-.9.89-.73 1.5-.3.81.37.5-.48.2-.77 1.18-.89.56-.85.19-1.64.19-.83.62-.49 1.54-.55.61-.4.48-.67 1.54-.7.77-.09.84.11 1.28-.55.84-.52 2.74-1.49 1.08-.92-2.3-3.88-9.08-10.68-.7-1.38.19-.04-2.79-5.73-3.24-2.98-4.43-2.76-2.25-.57-2.13-.28-1.05.31-1.89 1.31-2.22.63-1.48 1.57-1.93.76-1.52 1.61-2.08 1.23-2.64 1.09-3.25.62-4.13.29-2.95-.52-5.02-1.94-2.79-.05-2.69.14-1.74.55-4.1-1.68-8.43 1.32-2.79-1.47-1.56-.4-1.21-.21-.98-.53-.95.2-1.05-.03-1.4-.2-.95.57-.85.28-3.52.77-1.76-.06-.84-.14-2.29.95z"/>
        <text class="map_reserve_text" id="map_reserve_text_9" x="25" y="950">Tsiseb Conservancy</text>
    </g>
  
    <g>
        <path class="map_reserves" id="map_reserve_area_10" d="m416.84 893.17l.69.85-.46.62-.12 1.32 2.05 2.37.69 1.45-.16 1.41-.83 1.85-.99 1.23-.59-.07-2.03.11-1.09 1.12-.25 1.89.56 1.52 1.75.69.81 1.88.13.89-.03 1.56.79.53 1.9-.62 1.3.42.17.94-.5.88 13.5-.86 2.21-1.41 5.84-1.72-.51-2.47-.2-9.02-3.2-1.47-7.46-6.75-8.65-5.36-.61.69-4.71 5.53z"/>
        <text class="map_reserve_text" id="map_reserve_text_10" x="25" y="950">Aussenkehr Nature Reserve</text>
    </g>
  
    <g>
        <path class="map_reserves" id="map_reserve_area_11" d="m552.05 176.03l-5.03-.34-13.2 14.67-.05.91 18.28.97 0-16.21z"/>
        <text class="map_reserve_text" id="map_reserve_text_11" x="25" y="950">Mangetti National Park</text>
    </g>
  
    <g>
        <path class="map_reserves" id="map_reserve_area_12" d="m397.57 325.67l.86-.81-.3-3.85 4.31-.9 6.75-2 1.07-.85-.96-1 3.9-1.57.77-2.19-.77-.52 2.59-.91 2.34-1.23 1.22-1.15 1.11-.47 1.12.28 1.17-.43.96-1.47 1.78-.57 1.78.14 1.93-.14.96-.91 1.67-.23-1.26-1.91-.51-2.57-6.04 1.05.25-1.48-6.6-1.47-5.94 4.28-5.13 2.24-1.42 2.66-1.21 4.95-2.34 4-2.13 2.23-2.59 1.29-1.37 1.85 1.32 3.14.71.52z"/>
        <text class="map_reserve_text" id="map_reserve_text_12" x="25" y="950">Waterberg Plateau Park</text>
    </g>
  
  
    <g>
        <path class="map_reserves" id="map_reserve_area_13" d="m944.24 104.99l-2.09 4.67-.1 2.42-3.02 8.1-3.65 3.6-1.04 1.45-1.7.74-.82 3.07 1.58-.58-.56 1.44 2.38-1.06 1.17.77 1.73-.33 2.33 1.74 2.08 3.18 0 1.21 1.68 1.98 1.62-.63 1.32 1.06 2.29.15 1.78-2.37 1.42-3.14 1.77-1.49 1.63-2.08 2.43-.48 1.02-1.55.96-.67-.05-.92 1.12-.97.91.77 1.48-1.01 1.42-.82 2.54-1.79 1.24-.68-1.29-1.69-1.96.41-6.46-2.53-.48-.9-1.13-.19-.14-.98-2.18-.73-2.74-2.55-3.41-1.96-2.55-1.95-1.58-2.25-.95-.46z"/>
        <text class="map_reserve_text" id="map_reserve_text_13" x="25" y="950">Salambala Conservancy</text>
    </g>
  
    <g>
        <path class="map_reserves" id="map_reserve_area_14" d="m645.93 249.54l-2.44 1.63-1.42 1.72-1.98 5.3-.25 4.26.56 6.4 2.74 5.58 3.2 3.68 2.89 1.86 3.35.62 6.14-.15 5.38-.81 1.88-.95 1.37-2.05.82-1.58 1.37-5.53.3-4.73.05-4.68-1.42-4.88-1.12-3.16-2.38-1.57-2.39-.82-7.05-1.43-5.49.05-4.11 1.24z"/>
        <text class="map_reserve_text" id="map_reserve_text_14" x="25" y="950">Naye-Naye Concession Area</text>
    </g>
  
    <g>
        <path class="map_reserves" id="map_reserve_area_15" d="m490 915.09l-.23.87-.2 2.19.14.92-.76 1.47-.69.88-.48.93-.05.4 5.56.25 4.34 6.7 3.48-.04 1.29 7.24 1.12-.87 4.62-.67 1.02-1.06 3.86.31 3.7-.98 2.54.67 1.09.11 0 0 5.08-5.45-3.17-6.14-7.36-4.77-2.44-.87-3.36-2.59-3.28-2.92-6.83 5.11-6.3 1.94-2.69-3.63z"/>
        <text class="map_reserve_text" id="map_reserve_text_15" x="25" y="950">Sandfontein Lodge and Nature Reserve</text>
    </g>
  
    <g>
        <path class="map_reserves" id="map_reserve_area_16" d="m438.11 867.54l6.55-7.85-2.64-4.09 6.65-5.21 10.77 5.13.45-3.64-8.32-5.26 13.6-6.08-6.55-2.25-.05-2.47 2.69-1.62.21-1.76-.71-2.52-1.43-1.53-3.7.81-2.54-.36-3.1-2.26-2.89-.27-.2 9.01.81 3.42 2.94 2.88-2.23 2.16-4.47 2.88 2.69 2.7-6.9 3.91-2.18 4-4.57 3.81 5.12 6.46z"/>
        <text class="map_reserve_text" id="map_reserve_text_16" x="25" y="950">Gondwana Nature Park</text>
    </g>
      
    <g>
        <path class="map_reserves" id="map_reserve_area_17" d="m439.43 802.39l-3.85 3.07-2.34 3.34-1.57 3.71 2.48 1.67 4.22 5.55 1.01-.95 7.47 5.05.4.72-.15 1.76 2.89.27 4.57-.36-.51-5.99-7.56-8.17.31-6.01-7.37-3.66z"/>
        <text class="map_reserve_text" id="map_reserve_text_17" x="25" y="950">Canyon Nature Park</text>
    </g>
  
    <g>
        <path class="map_reserves" id="map_reserve_area_18" d="m439.43 802.39l.39-.64-.08-.9.41-.9-.89-.86.38-1.38-.81-.39-5.51.05-2.52-.52-.38-.68-1.93-.7-5.02.47-1.83 2.6.03 1.99.58.89 1.27.9 11.55 2.87.38 0 .13.27 3.85-3.07z"/>
        <text class="map_reserve_text" id="map_reserve_text_18" x="25" y="950">Vogelstrausskluft Private Nature Reserve</text>
    </g>
  
    <g>
        <path class="map_reserves" id="map_reserve_area_19" d="m281.38 477.28l.61-.04 1.49-1.22 7.34-1.34 7.44.03 5.94-11.63.43-2.47-3.43-.25-4.54.11-4.9-.23-1.09.12-1.22-.12-.05 3.26-1.17 2.53-2.51 2-.59 1-.88 5.11-1.6.92-1.27 2.22z"/>
        <text class="map_reserve_text" id="map_reserve_text_19" x="25" y="950">Tsaobis Nature Park</text>
    </g>
  
    <g>
        <path class="map_reserves" id="map_reserve_area_20" d="m349.74 371.17l-2.03.76 1.07 3.69 1.42 1.56-.51 1.18-2.18 1.75-4.62.38-2.39 3.64-2.38 1.46-3.76.71-3.86 2.22 3.4 10.16 12.54.19.41-4.91 3.22-3.36 2.64-2.69 3.66-3.75-.29-1.74-3.45-8.11 1.86-2.25-.15-1.02-4.6.13z"/>
        <text class="map_reserve_text" id="map_reserve_text_20" x="25" y="950">Erindi Private Game Reserve</text>
    </g>
  
    <g>
        <path class="map_reserves" id="map_reserve_area_21" d="m360.26 332.4l-3.48 4.46 2.97 1.86-4.06 4.24 6.67 3.82 4.62-2.68.89-.21 1.55-2.78-.46-1.18-2.77.45-.38-2.12-1.16.08-.41-4.09-1.37.19-2.61-2.04z"/>
        <text class="map_reserve_text" id="map_reserve_text_21" x="25" y="950">Okonjima Nature Reserve</text>
    </g>
  
    <g>
        <path class="map_reserves" id="map_reserve_area_22" d="m412.01 267.76l-5.36 6.75 3.12 1.77-1.27 1.62 2.87.14 1.96-.12 1.42-1.26.07-3.22.18-1.7-.66-.14.08-4.13-2.41.29z"/>
        <text class="map_reserve_text" id="map_reserve_text_22" x="25" y="950">Mundulea Nature Reserve</text>
    </g>
  
    <g>
        <path class="map_reserves" id="map_reserve_area_23" d="m198.18 224.47l-1.73.7-.53-.17-2.26 1.61-1.83 11.47 4.52 3.4 2.1-4.34 1.96.27-.04-.42.6-1.75-.11-.64.15-.67 1.33-1.05.39-.74.19-1.04.03-1.03-.67-1.52-.1-.57.02-.35-.34-.22-.25-.4-.05-.33-.46-.17-.56-.75-.78-.78-.21-.19-.41-.04-.66.01-.3-.29z"/>
        <text class="map_reserve_text" id="map_reserve_text_23" x="25" y="950">Hobatere Concession</text>
    </g>
  
    <g>
        <path class="map_reserves" id="map_reserve_area_24" d="m323.14 576.68l.05 1.71-7.26-.23 4.11 24.18 1.73 2.03 1.77.56 2.74-.33 1.98-1.8 2.34-4.12 1.47-.09 7.01-6.71 2.33-.65-1.78-3.2-3.45-1.9-6.04 1.95-.3-3.98 3.4-1.95 2.23-4.08-2.84-2.74-5.84.65-.81 1.67-2.84-.97z"/>
        <text class="map_reserve_text" id="map_reserve_text_24" x="25" y="950">Naukluft Mountain Zebra Park</text>
    </g>
  
    <g>
        <path class="map_reserves" id="map_reserve_area_25" d="m332.92 524.17l-2.48 1.68-.87 1.49.26 1.84 1.67 1.24 2.18.53 1.93-.04 1.78-.96 1.52-1.7.46-1.4-.74-1.51-.96-.89-1.7-.44-1.9-.1-1.15.26z"/>
        <text class="map_reserve_text" id="map_reserve_text_25" x="25" y="950">Gamsberg Nature Reserve</text>
    </g>


    <!-- ATLANTIC OCEAN -->

    <text class="map_atlantic-ocean" id="map_atlantic-ocean_1" transform="rotate(79)" x="455" y="30">ATLANTIC OCEAN</text>



    <!-- REGIONS -->
  
  <path class="map_regions" id="map_region_1" d="m1.17 77.45l.25 4.05-.51 2.81.61 2.14-.5.97-.41 2.22-.61 12.4.81 2.32-.1 2.13 1.52 7.16.21 2.99 2.23 8.51.51 5.99 2.33 8.69 1.32 3.47 2.64 2.41 4.98 6.46-.21 2.7 3.25 5.21.21 5.01 2.03 3.85 5.48 5.01 15.03 11.92 5.88 8.08 5.69 6.72 1.02 6.92 5.88 4.41 3.46 5.57 3.65 8.24 3.05 4.6 1.82 8.05 9.14 13.97 4.67 10.13 2.85 5.35 4.67 8.97 2.43 6.11 3.05 4.77 7.51 7.05 1.63 4.58 2.23 4.38.41 9.32 6.9 11.6 2.44 8.93 1.01 6.08 6.5 9.87 5.08 7.01 2.03 6.44 4.67 5.69 7.92-4.36 11.77-8.15 6.91-2.08 7.71-1.71 6.91-1.52 4.26 1.52 6.91 1.52 4.26-1.9 4.47 2.28 5.48-1.52 8.73 3.22 7.11-1.13 5.89-2.28 4.46-3.79 16.25-11.96 2.44-.38 2.84-5.31 4.87-1.9 5.49-7.42 2.23-1.71 2.84-3.42 4.67.38 2.03 3.04 7.31 2.28 5.49-.76 4.67-4.37 3.45-1.71 5.07 2.47 2.03 2.47 5.28-5.7 4.88-2.67 8.32-.57 6.91-2.47 2.84 1.9 4.26-1.9 2.03-2.86-1.42-1.9.21-6.48 3.85-3.24 8.94-4.57 4.06.95.41-1.91-2.03-4.76 1.82-2.1 12.39-1.34.81-17.18 1.02-10.9-2.64-9.18-7.92-4.6-8.12.58-7.92-1.92-6.1-.77-13.04-3.57-5.68 0-14.42-5.37-7.51-.57-14.02-2.3-12.38-.96-4.27.58-.4-3.26-14.01 2.11-4.88-1.73-12.18 2.3-19.09-.19-7.51 1.72 1.22 4.8 3.25 1.34-.21 5.55-10.76-.38 1.02-2.49 1.82-2.68-.4-3.26-2.03-3.07-4.88-4.22-3.24-9.2.6-2.5 3.66-8.83-5.08-11.72-3.04-8.08 2.43-12.71-1.82-16.96-1.63-18.72-10.15-19.9 2.23-1.74 1.22-3.29-.41-3.1-3.65-1.74 0-2.52 2.84-2.71 2.85-3.87.81-4.07-.61-1.74-5.08 2.52-2.03 0-1.62 1.35-5.28-2.32-1.42 1.35-4.27.2-1.83-3.49-2.64-2.52-10.96-6.01-3.86-2.13-3.86-2.13-6.49-4.66-2.64-1.55.81-2.72-3.51-5.53-3.85-1.17-4.88-1.75-6.7 1.75-6.7-2.91-6.5 1.36-3.45-.2-4.47.59-2.03 2.72-3.04-.2-2.24 1.94-1.62 2.33-2.84.78-1.42 2.13-6.5 3.3-6.5 3.3-1.83 2.13-8.93.78-2.24 1.36-2.23-4.08-3.25 1.56-1.83-.97-4.67 1.35-3.04.2-5.69-5.43-6.7-.97-2.84.19-7.31 2.33-4.27 3.3-3.19.24-1.55 2.11-.51.24-.71-.07-.38.63-3.15-1.65z"/>
  <path class="map_regions" id="map_region_2" d="m182.91 87.87l.61 1.74-.81 4.07-2.85 3.87-2.84 2.71 0 2.52 3.65 1.74.41 3.1-1.22 3.29-2.23 1.74 10.15 19.9 1.63 18.72 1.82 16.96-2.43 12.71 3.04 8.08 5.08 11.72-3.66 8.83-.6 2.5 3.24 9.2 4.88 4.22 2.03 3.07.4 3.26-1.82 2.68-1.02 2.49 10.76.38.21-5.55-3.25-1.34-1.22-4.8 7.51-1.72 19.09.19 12.18-2.3 4.88 1.73 14.01-2.11.52-2.66 7.76-1.91 3.25-2.26 9.7-3.12-1.32-1.68-2.69-.72-1.78-1.68-.66-1.44.51-1.48 3.3-4.28 0-2.45-4.27-9.75 2.69-6.16 1.63-.86-4.93-37.81-1.77-.97-.92-1.35-1.67.1-1.17-.73-3.3-1.16-.86-.04-3.3-1.55-.46-.67-3.04-1.79 27.66-26.45-.4-1.84 1.01-.83-.2-3-3.96-3.72-.36-1.41-2.38-3.48-.61-1.89 0-2.13-1.02-2.62-98.59.19z"/>
  <path class="map_regions" id="map_region_3" d="m289.42 108.6l-27.66 26.45 3.04 1.79.46.67 3.3 1.55.86.04 3.3 1.16 1.17.73 1.67-.1.92 1.35 1.77.97 4.93 37.81-1.63.86-2.69 6.16 4.27 9.75 0 2.45-3.3 4.28-.51 1.48.66 1.44 1.78 1.68 2.69.72 1.32 1.68-9.7 3.12-3.25 2.26-7.76 1.91-.52 2.66.4 3.26 4.27-.58 12.38.96 14.02 2.3 7.51.57 7.19 2.66.26-2.9-.11-2.28-1.42-4.41 3.68-2.83.21-1.96-4.72-3.22-3.71-9.21-.86-5.29.66-5.57 5.02-6.44 6.35-4.86 1.67 1.16.61-.31-1.11-2.17-.49-4.57-2.31-1.66-.28-3.03-2.33-1.23-.66-2.33 1.14-7.28-.58-2.55.51-1.93 3.19-3.03 2.95-5.02.35-6.75-1.01-5.16-1.88-2.47.05-23.09-26.07-1.65z"/>
  <path class="map_regions" id="map_region_4" d="m281.5 87.68l1.02 2.62 0 2.13.61 1.89 2.38 3.48.36 1.41 3.96 3.72.2 3-1.01.83.4 1.84 26.07 1.65 26.99 17.07 27.92-11.5 92.6-.87 0-27.3-181.5.03z"/>
  <path class="map_regions" id="map_region_5" d="m315.49 110.25l-.05 23.09 1.88 2.47 1.01 5.16-.35 6.75-2.95 5.02-3.19 3.03-.51 1.93.58 2.55-1.14 7.28.66 2.33 2.33 1.23.28 3.03 2.31 1.66.49 4.57 1.11 2.17-.61.31-1.67-1.16-6.35 4.86-5.02 6.44-.66 5.57.86 5.29 3.71 9.21 4.72 3.22-.21 1.96-3.68 2.83 1.42 4.41.11 2.28-.26 2.9 7.23 2.71 5.68 0 13.04 3.57 6.1.77 7.92 1.92 8.12-.58 7.92 4.6 22.39-11.4 8.74-13.33 3.14-1.44 2.85-.09 1.52 1.53 4.97-.38 1.22 3.12.31 2.78 1.98.71 3.7-2.54 3 .96.61 2.06-1.53 1.87-3.45 2.49 1.52 3.88 5.54.63 5.68 3.97 5.28 2.11 7.52 3.25 8.73-1.34 5.48 2.49 3.25-2.11-.81-3.63-3.05-3.64 1.22-3.83 7.51-4.22.41-7.09 2.44-3.46-1.02-5.75 4.87-5.38 5.28-3.07 2.74-14.99-15.53-1.25.17-71.59-92.6.87-27.92 11.5-26.99-17.07z"/>
  <path class="map_regions" id="map_region_6" d="m588.93 123.98l-.51 2.42.92 1.55 0 5.02-15.54.09.41 12.84 15.13 28.81-1.83 6.73 3.35.39 1.52 1.83-3.65 0-1.22 2.02-.1 4.51 1.93 1.73.4 2.79-2.23 1.64-.92 3.17 2.03 2.59 2.04.96-1.53 1.34 1.22 1.92-5.38 4.23-9.85 4.89-2.64 3.45 112.29.87.1-63.65 33.81 0 78.49-15.14-.21-21.83-80.51 15.65-3.66-1.3-.81-1.93-3.25.48-3.45-1.93-2.74-1.06-1.62-1.74-2.75.77-1.42-.58-3.65.77-1.63.68-2.08-.29-2.13.68-1.42-.15-.97.92-1.47-.44-3.45 1.26-2.13 1.45-3.25.63.51 1.83-4.78.72-3.19-1.49-.99-1.06-2.54.67-2.23-.77-1.22-1.35-3.55-.48-4.98.58-2.53-1.26-1.32-1.06-1.83-.19-.71-2.32-1.83-1.06-1.73-.1-2.13-.87-1.52.29-3.05-2.71-2.03.39-.25.82-1.37-.77-1.53.58-.5 1.35-1.17-.77-4.57-.49-4.52 2.76-1.62-1.5-2.39-.53-1.83 1.5-2.84-1.55-1.47.29-1.73-1.3-2.99-.63-.51.92-2.99.67-3.76-1.25-2.64 1.64-.97 1.54-1.16-.33-1.37-2.18-1.17-.29-.64.72z"/>
  <path class="map_regions" id="map_region_7" d="m572.48 218.9l2.64-3.45 9.85-4.89 5.38-4.23-1.22-1.92 1.53-1.34-2.04-.96-2.03-2.59.92-3.17 2.23-1.64-.4-2.79-1.93-1.73.1-4.51 1.22-2.02 3.65 0-1.52-1.83-3.35-.39 1.83-6.73-15.13-28.81-.41-12.84 15.54-.09 0-5.02-.92-1.55.51-2.42-.99-1.73-1.42-.68-2.84.2-.46.86-.81-.43-.31.58-2.08-.44-.71 1.07-1.93.14-1.12-.72-1.47-.29-1.77.53-1.98-.58-3.46.34-2.79-1.31-3.45.49.2-1.55-2.13.19-1.72-.96-2.75-.49-1.11.78-3.66-1.65-.91.68-1.93-.68-1.12.97-.3 1.35-8.63-.77-1.53.29-2.43-.87-3.45.1-2.34-1.16-1.62-.68-.61-1.64-3.66-.39-1.22-2.32-2.43.39-.31-1.55-4.97-3.68-2.13-1.93-1.63-.97 0-1.64-1.62-1.75-2.54-.29-2.44-2.8.31-1.65-2.54-2.42-1.42-.48-.51-2.13-1.63-2.33-2.23-2.37-31.33.04 0 27.3-.17 71.59 15.53 1.25 72.93 4.28-.61 26.69 21.8.14z"/>
  <path class="map_regions" id="map_region_8" d="m796.96 119.15l.21 21.83 42.97-8.32 14.32.19 1.98 1.64-.81.97 2.08 1.11-1.32.82.45 1.3 1.17.68 1.73 2.5 1.17 1.36 1.87 3.32-.71 1.64 3.86.39.41 1.54 1.16.68 2.34-.1.2 1.54 1.58.63.45 3.42 1.93 1.45-.3 1.4.76 1.15-.97.48.61 1.3.41 1.35-.86 1.64 1.42 1.4-.31 1.83 3.56 1.54 2.48-1.64 2.64-3.27 2.44.04 5.53-4.38 1.07-2.65 3.35-2.41 2.64-3.08 2.54-.68.76-1.59-.81-.96.81-1.35 2.84-1.21 3.96-3.33 2.24-1.06-.1-1.25 2.99.48 4.11-3.43 1.58-2.46 2.53-1.69 2.54.77 2.24-1.2 1.87 1.93.61-2.32 1.83-.87 1.83-2.32 2.38-1.06 1.17.77 1.73-.33 2.33 1.74 1.27 2.12.81 1.06 0 1.21 1.68 1.98 1.62-.63 1.32 1.06 2.29.15 1.78-2.37 1.42-3.14 1.77-1.49 1.63-2.08 2.43-.48 1.02-1.55.96-.67-.05-.92 1.12-.97.91.77 1.48-1.01 1.42-.82 2.54-1.79 2.08.15 2.89-1.65 1.17-1.16 1.72.34 1.98-1.93 1.58-.05-.1.68-1.32.33.66.49.71.43-.61.58 1.52.39.81-1.02 0 1.55 1.07-.1 2.49-1.98.66.87-.66 1.07 1.42.53 3.45-1.26.91-1.59.92.48 1.27-2.27 3.65.77 3.86.19-2.89-1.69-2.24.05-2.54-1.98.16-1.98-.92-.87-.91.62-.36-1.45-2.48 1.21.71-2.8-1.12-.73-1.01-1.79-.87-.58-.2-1.11-.61-.1-.46 1.36-.56-.58.72-1.79-.51-.78-1.17-.24-1.47 1.06-1.17-1.4-.61-1.93-1.01-.05-1.78 1.06-.1-1.5-2.64.49-1.07-.68-.91-1.45-1.78.29-2.18-.73-2.24 1.36-.71-.63-.55-1.7-1.53.68-1.88-.82-1.72-.58-2.59.33-1.57-.53-1.53.44.26.92-.87.05-1.27 1.45-3.7.39-1.22-2.23-2.59.53-2.08-1.94-2.49-.92-1.77.05-2.44-.63-4.57 1.7-3.65-.58-.72.58-1.52-1.21-128.11 25.22z"/>
  <path class="map_regions" id="map_region_9" d="m139.91 368.71l3.98 5.61 6.6 9.08 6.19 7.85.2 2.45 4.37 7.46 4.37 6.97-1.52 3.77 8.93 8.02 16.04 18.16-1.01 2.35 4.06 3.95 5.58 7.05 3.05 9.67 3.65 5.63.31 4.22 1.83 5.06-.61 4.31-.21 3.46 2.34 3-.81 8.7-3.66 3.27-3.96 1.41.71-2.81-.3-5.05-2.34 6.27 0 7.19 6.6 19.32-1.11 6.71-.51 11.46 45.28 3.72 48.53 14.32 7.31.37.2-16.36-8.32-5.22 7.11-8.38-2.85-9.88 10.97-3.55-6.5-6.53 3.86-19.07 12.18-1.31 0-11.42-7.31-.37 6.7-7.31 20.71-6.94-.4-5.25 5.89-3.01-6.3-12.77 6.5-3.39 4.06-17.12-5.89-14.7 2.34-14.54 10.05-10.3-3.15-7.28.1-9.93-6.19 1.04-13.5-12.98-4.27 2.27-8.22-1.61-3.66-4.55-22.94-13.37-.1-5.89-7.21.66-3.45-2.28-.54-7.91-7.31-2.28-2.03-3.04-4.67-.38-2.84 3.42-2.23 1.71-5.49 7.42-4.87 1.9-2.84 5.31-2.44.38-16.25 11.96-4.46 3.79-5.89 2.28-7.11 1.13-8.73-3.22-5.48 1.52-4.47-2.28-4.26 1.9-6.91-1.52-4.26-1.52-14.62 3.23-6.91 2.08-11.77 8.15-7.92 4.36z"/>
  <path class="map_regions" id="map_region_10" d="m684.77 219.77l-112.29-.87-21.8-.14.61-26.69-72.93-4.28-2.74 14.99-5.28 3.07-4.87 5.38 1.02 5.75-2.44 3.46-.41 7.09-7.51 4.22-1.22 3.83 3.05 3.64.81 3.63-3.25 2.11-5.48-2.49-8.73 1.34-12.8-5.36-5.68-3.97-5.54-.63-1.52-3.88 3.45-2.49 1.53-1.87-.61-2.06-3-.96-3.7 2.54-1.98-.71-.31-2.78-1.22-3.12-4.97.38-1.52-1.53-2.85.09-3.14 1.44-8.74 13.33-22.39 11.4 2.64 9.18-1.83 28.08-12.39 1.34-1.82 2.1 2.03 4.76-.41 1.91-4.06-.95-8.94 4.57-3.85 3.24-.21 6.48 1.42 1.9-2.03 2.86-4.26 1.9-2.84-1.9-6.91 2.47-8.32.57-4.88 2.67-5.28 5.7-2.03-2.47-5.07-2.47-3.45 1.71-4.67 4.37-5.49.76.54 7.91 3.45 2.28 7.21-.66.1 5.89 22.94 13.37 3.66 4.55 8.22 1.61 4.27-2.27 13.5 12.98 6.19-1.04-.1 9.93 3.15 7.28-10.05 10.3-2.34 14.54 5.89 14.7-4.06 17.12-6.5 3.39 6.3 12.77 6.97-1.99 19.19-1.5-.71-2.26-7.72.1 4.47-6.86 5.28 3.57 1.72 3.66 10.97-5.82 2.64 2.81 6.29-4.41 2.03 3.19 10.06-4.04 1.21-6.49 9.45.19.91-3.29 3.96 2.07 1.12-4.8-2.34-4.42 4.47-2.36 5.18-6.5 3.75-1.88 3.76.19 3.35 1.98 8.12-2.83 10.66-6.13 10.77-2.26 6.09-3.02 1.01-9.82-1.42-10.02 3.66-1.93-.87-2.37-4.72-.85.15-3.12 3.36-2.93 5.63-.1 3.35 1.9 2.79.61.81-.76-3.4-4.4.46-2.32 4.26-1.09.16-1.94-1.22-1.04-2.84-.33-.71-1.42.55-4.83 2.24-1.38 7.71-2.03 3.35 6.77 1.93-6.82-.3-2.04 1.52-3.89-1.27-.38 1.12-5.59 6.04-10.68 14.42-13.41 14.01-4.75 5.28-4.38 18.27-6.66 5.28-2.86 33.91 1.33 37.97 6.1 15.84-.19 10.56 3.04 9.04-3.04 9.04-.67.11-85.9z"/>
  <path class="map_regions" id="map_region_11" d="m684.66 305.67l-9.04.67-9.04 3.04-10.56-3.04-15.84.19-37.97-6.1-33.91-1.33-5.28 2.86-18.27 6.66-5.28 4.38-14.01 4.75-14.42 13.41-6.04 10.68-1.12 5.59 1.27.38-1.52 3.89.3 2.04-1.93 6.82-3.35-6.77-7.71 2.03-2.24 1.38-.55 4.83.71 1.42 2.84.33 1.22 1.04-.16 1.94-4.26 1.09-.46 2.32 3.4 4.4-.81.76-2.79-.61-3.35-1.9-5.63.1-3.36 2.93-.15 3.12 4.72.85.87 2.37-3.66 1.93 1.42 10.02-1.01 9.82-6.09 3.02 2.17 5.75-.35 1.6-4.67 2.41-.92 1.5.16 1.37 2.89 1.84.81 2.59-.35 1.74-1.58 1.08-3.55 5.93 1.83 1.51.4 3.48-7.82 1.79-.91 5.73 3.45 6.76 3.25 3.01 5.18-1.22.91 4.69 3.46 1.69-4.37 2.72 3.86 3.57 3.45-2.44 1.42 4.97 4.98 25.66-.51 4.68 7.11-.28.5 2.24-6.9 1.77.61 3.74 4.16.38.31 1.58 5.07.66 1.02 5.13-7.41.1-1.12 3.17 2.03 2.42 3.86 1.4 5.58 5.32-4.57 12.95 6.91 14.23 4.67-2.14 6.39 6.33 8.53.74 12.19-5.58 6.29.65-2.03 2.05 9.85 1.3 5.38-5.49 3.55 1.12 0 14.12 54.02-.18-.61-138.75 74.32 0 .16-122.7z"/>
  <path class="map_regions" id="map_region_12" d="m495.04 539.97l4.57-12.95-5.58-5.32-3.86-1.4-2.03-2.42 1.12-3.17 7.41-.1-1.02-5.13-5.07-.66-.31-1.58-4.16-.38-.61-3.74 6.9-1.77-.5-2.24-7.11.28.51-4.68-4.98-25.66-1.42-4.97-3.45 2.44-3.86-3.57 4.37-2.72-3.46-1.69-.91-4.69-5.18 1.22-3.25-3.01-3.45-6.76.91-5.73 7.82-1.79-.4-3.48-1.83-1.51 3.55-5.93 1.58-1.08.35-1.74-.81-2.59-2.89-1.84-.16-1.37.92-1.5 4.67-2.41.35-1.6-2.17-5.75-10.77 2.26-10.66 6.13-8.12 2.83-3.35-1.98-3.76-.19-3.75 1.88-5.18 6.5-4.47 2.36 2.34 4.42-1.12 4.8-3.96-2.07-.91 3.29-9.45-.19-1.21 6.49-10.06 4.04-2.03-3.19-6.29 4.41-2.64-2.81-10.97 5.82-1.72-3.66-5.28-3.57-4.47 6.86 7.72-.1.71 2.26-19.19 1.5-6.97 1.99-5.89 3.01.4 5.25-20.71 6.94-6.7 7.31 7.31.37 0 11.42-12.18 1.31-3.86 19.07 6.5 6.53-10.97 3.55 2.85 9.88-7.11 8.38 8.32 5.22-.2 16.36-7.31-.37-1.51 3.48 1.01 4.74-1.52 3.71 3.45 1.48 10.06 0 2.33-2.59 4.98-.47 8.52-3.53 5.79-.18 4.57-2.69-.61 6.12-4.47.75-3.85 2.87 8.52 1.3 2.24 2.97-2.74 3.34 6.49-3.16-1.93-6.58 4.88-3.81.71-3.06 2.33 2.13 2.03 0 .51 2.23 5.59-1.3-.82-5.1-15.43-1.77 2.13-10.13 3.25-4.65 2.14 2.51-.11 2.42 5.18.28 7.51-6.14.21-4.93-7.41-2.89 10.76-19.85 2.94.28 1.12 2.61 6.6-.84 2.54 3.45 10.05-2.42 4.67-7.28 6.7.28 7.11 2.52-.51 7.18 2.13 1.77 11.27-2.89 4.67 1.77 4.57-1.95-.41 2.33-4.26 2.42.81 5.03-4.26 1.31 3.15 6.05 2.53 7.91-.81 3.72 2.13 1.02 5.18-4.55 7.31.37.41-2.05 12.99-.37 6.81 1.21 4.46 3.91 8.33-.56 11.37-4.47-.81-3.35 12.59-5.58 2.38 2.35z"/>
  <path class="map_regions" id="map_region_13" d="m202.68 543.25l2.8 26.54-4.87 4.45 2.84 15.94 9.75 20.73-2.03 6.46 15.02 18.82-.61 6.82 4.27 8.47 67.41-.55 4.27 11.58 5.28 31.74 6.09-.92 3.86 2.93 12.38 17.75 5.69-2.38 4.67 2.74-3.65-21.04 4.06-3.29 5.48 1.83.2 5.49 3.45 1.1 5.28-12.27 2.64 6.41 29.04 6.41.81 5.12 8.73-.91 4.67-2.93 13.81 5.31-2.23-7.32 8.12-7.69 12.79 3.29 34.52-5.86 12.59-4.77 25.59.19-1.02 5.31 36.76 2.93 8.32-2.19 4.27-3.3 5.89 10.62 4.06.19 2.03-4.4 10.76 1.65 1.83 2.2 7.31.55 7.92 2.92 7.92-4.57 9.54-1.83-.2-126.4-54.02.18 0-14.12-3.55-1.12-5.38 5.49-9.85-1.3 2.03-2.05-6.29-.65-12.19 5.58-8.53-.74-6.39-6.33-4.67 2.14-6.91-14.23-2.38-2.35-12.59 5.58.81 3.35-11.37 4.47-8.33.56-4.46-3.91-6.81-1.21-12.99.37-.41 2.05-7.31-.37-5.18 4.55-2.13-1.02.81-3.72-2.53-7.91-3.15-6.05 4.26-1.31-.81-5.03 4.26-2.42.41-2.33-4.57 1.95-4.67-1.77-11.27 2.89-2.13-1.77.51-7.18-7.11-2.52-6.7-.28-4.67 7.28-10.05 2.42-2.54-3.45-6.6.84-1.12-2.61-2.94-.28-10.76 19.85 7.41 2.89-.21 4.93-7.51 6.14-5.18-.28.11-2.42-2.14-2.51-3.25 4.65-2.13 10.13 15.43 1.77.82 5.1-5.59 1.3-.51-2.23-2.03 0-2.33-2.13-.71 3.06-4.88 3.81 1.93 6.58-6.49 3.16 2.74-3.34-2.24-2.97-8.52-1.3 3.85-2.87 4.47-.75.61-6.12-4.87 2.74-5.49.13-8.52 3.53-4.98.47-2.33 2.59-10.06 0-3.45-1.48 1.52-3.71-1.01-4.74 1.51-3.48-48.53-14.32-45.28-3.72z"/>
  <path class="map_regions" id="map_region_14" d="m229.85 651.48l2.03 5.4-2.03 3.77 0 3.31-3.25 7.62.41 6.43 2.64 3.76-.61 2.66 1.52 1.65 1.93 5.04-1.52 2.83-1.73 4.95 1.02 4.39-1.73 1.46 2.24 4.3 2.53 1.92 1.22 2.38-.2 5.2 3.25 4.29.71 2.74 1.42 5.38-.41 3.37-3.55-.09 3.55 3.65-1.11 2.46-.51 5.46 1.22 3.37 7.31 3 4.06 4.5-.36 1.68 1.93 3.14.41 5.4 1.93.18-.15 2.14-.26 1.27-1.27 1.04-.15 4.04-1.06-2.72.35-1.27-.91-.77-3.45 1.54.71 6.26 1.52 0-.41 2.17 1.83 3.9 1.93 3.17-.81 3.35 5.38.73 1.32 2.89-.71 5.52 1.62 3.17.81 7.68 1.73 8.3 6.5 10.64 3.55 3.25 3.35 6.57 4.77 6.12-.71 2.24 1.83 4.77 6.6 6.91 3.86 5.3-.92 1.7 3.25 4.85 9.14 8.78 15.64 12.43 13.6 12.42 6.4 7.14 8.37 5.39 1.48.81.25-2.5.91-1.11.87-.09.76-1.39 1.22.18 2.53-.67 1.83-.22 1.22-.67 1.98-.98.91-2.41 4.6-2.21.73.61-.07 1.34 1.42.49 1.7-.47.71-1.79 2.13-1.6.1-1.25-.55-.94-.18-1.59 1.01-.58 2.29-2.27-1.68-.99-.61-1.87-1.32-.67-.86-1.57.46-2.14 1.52-.23 1.07.9 1.32.53 1.11-.49.26-2.06-1.27-.58-.61-.94.46-.8 1.26.49 2.09-.4.25-.81-1.98-1.3-.25-.98.66-.54 1.42.32 1.17.94 1.32-.59 0-2.14-.11-2.38-.55-.71.66-1.48 1.62-.99 2.69.68 2.18-1.48.87.98 1.01.18 1.27-1.57 3.35-.85 1.22-.67 2.94 2.2.71 2.19 3.05.67 1.37.32.41 1.43-1.12 3.71-.05 2.29 2.44 3.31 1.57 0 1.27-.94 1.93.67 2.18-1.57 1.07.36 1.42.27.86 1.25.46 1.39.68.67 1.07 1.32-.46.62-.12 1.32 2.05 2.37.69 1.45-.16 1.41-.83 1.85-.99 1.23-.59-.07-2.03.11-1.09 1.12-.25 1.89.56 1.52 1.75.69.81 1.88.13.89-.03 1.56.79.53 1.9-.62 1.3.42.17.94-.73 1.29.56.63.1.86-.56 1.01.2.73 0 .85-.94.89-.05 1.38.1.89-.28 1.09.51.6.84.16 2.61-1.56.61.27.56-.51.81-.41 1.76.36 2.38.18.71-1 2.24.11.81.33.56 1.16-.05.87.5.11-.15 1.87.56 1.11 2.33.89 2.39-.4.86-1.56 1.17-.17 1.07 1.06.91 0 .46-1.24.71-.22 2.33 1.37 3-.15.25.31 4.98.51 1.04.43.25-.58.79.13.86 1.54.64.2 1.11-.49 1.07.46.74 1.2.71.16 1.42 1.36.05.64.89.56.66 1.2.94 1.24.91.27 1.65-.71 1.14.38 1.63 1.2 1.19.42.96-.38 2.03.76.38.64.89.44 1.15-.55.58-.89.66-.31 2.06.4.91-1.33 4.62.31 1.83-.27.96.98 4.82.49 2.59-1.11 3.91.17 2.23-1.73 4.62-.67 1.02-1.06 3.86.31 3.7-.98 2.54.67 4.01.4 3.66.35 5.07.4 2.85.98 1.16 1.02 1.12 1.58.33 1.56.71.26.97-.15 1.11.29 2.03 1.84 3.35 1.02 1.25-.69 1.04.16 3.35-.94 2.41-2.04.41-.87 1.14-.77 2.87.57 1.01-1.2-.13-.77-.45-.71-1.8-.25-1.48-2.6-.55-1.87 1.42-3.45 1.65-1.75 1.27-.29 3.83.55 2.82-.66 1.34.35 1.7-1.18 2.59-1.04.97-1.27 1.04-.65.35-3.23.59-.71-.03-1.98 2.56-1.03.59-1.16.25-1.87 1.22-1.47 1.27.2.61-.45 2.31-1.02 2.33 1 1.07.56.38-.74 1.47-.07 1.14-.78 1.43-1.67 2.33.18 1.22.89.76-.04 1.22.62 1.42-.36 1.62-1.78-.45-.62.81-1.03 1.07.04.86-1.2 1.09-.14 1.7.45 2.49-.65 1.5-.76.93-.22 1.48.27.07-210.19-9.54 1.83-7.92 4.57-7.92-2.92-7.31-.55-1.83-2.2-10.76-1.65-2.03 4.4-4.06-.19-5.89-10.62-4.27 3.3-8.32 2.19-36.76-2.93 1.02-5.31-25.59-.19-12.59 4.77-34.52 5.86-12.79-3.29-8.12 7.69 2.23 7.32-13.81-5.31-4.67 2.93-8.73.91-.81-5.12-29.04-6.41-2.64-6.41-5.28 12.27-3.45-1.1-.2-5.49-5.48-1.83-4.06 3.29 3.65 21.04-4.67-2.74-5.69 2.38-12.38-17.75-3.86-2.93-6.3 2.02-5.07-32.84-4.27-11.58-67.41.55z"/>




    <!-- PROPERTIES -->


    <g>
        <ellipse class="map_locations clickable" id="map_property_location_1" transform="matrix(1, 0, 0, 1, 417.25, 455.4)" cx="0" cy="0" rx="9" ry="9"/>
        <text class="map_location_text" id="map_property_text_1" x="437.25" y="445.4">N/a'an ku sê Lodge</text>
    </g>
  
    <g>
        <ellipse class="map_locations clickable" id="map_property_location_2" transform="matrix(1, 0, 0, 1, 332.76, 610.42)" cx="0" cy="0" rx="9" ry="9"/>
        <text class="map_location_text" id="map_property_text_2" x="352.76" y="610.42">Neuras Wine & Wildlife Estate</text>
    </g>

    <g>
        <ellipse class="map_locations clickable" id="map_property_location_3" transform="matrix(1, 0, 0, 1, 325.17, 718.06)" cx="0" cy="0" rx="9" ry="9"/>
        <text class="map_location_text" id="map_property_text_3" x="345.17" y="718.06">Kanaan Desert Retreat</text>
    </g>
  
    <g>
        <ellipse class="map_locations clickable" id="map_property_location_4" transform="matrix(1, 0, 0, 1, 396.66, 470.15)" cx="0" cy="0" rx="9" ry="9"/>
        <text class="map_location_text" id="map_property_text_4" x="416.66" y="495.15">N/a'an ku sê @ Utopia</text>
    </g>
  
    <g>
        <ellipse class="map_locations clickable" id="map_property_location_6" transform="matrix(1, 0, 0, 1, 342.49, 366.88)" cx="0" cy="0" rx="9" ry="9"/>
        <text class="map_location_text" id="map_property_text_6" x="362.49" y="366.88">TimBila Nature Reserve</text>
    </g>
  
    <g>
        <ellipse class="map_locations clickable" id="map_property_location_7" transform="matrix(1, 0, 0, 1, 561.22, 410.04)" cx="0" cy="0" rx="9" ry="9"/>
        <text class="map_location_text" id="map_property_text_7" x="581.22" y="410.04">Harnas Guest Farm</text>
    </g>
  
    <g>
        <ellipse class="map_locations clickable" id="map_property_location_8" transform="matrix(1, 0, 0, 1, 865.22, 140.04)" cx="0" cy="0" rx="9" ry="9"/>
        <text class="map_location_text" id="map_property_text_8" x="695.22" y="190.04">Lianshulu Lodge & Bush Lodge</text>
    </g>
  
  
  
    <!-- ATTRACTIONS -->
  
    <g>
        <ellipse class="map_attractions clickable" id="map_attraction_location_1" transform="matrix(1, 0, 0, 1, 300, 605)" cx="0" cy="0" rx="5" ry="5"/>
        <text class="map_attraction_text" id="map_attraction_text_1" x="20" y="950">Solitaire</text>
    </g>
     
    
    <g>    
        <ellipse class="map_attractions clickable" id="map_attraction_location_2" transform="matrix(1, 0, 0, 1, 265, 625)" cx="0" cy="0" rx="5" ry="5"/>
        <text class="map_location_text" id="map_attraction_text_2" x="20" y="950">Sossusvlei</text>
    </g>
   
    <g>
        <ellipse class="map_attractions clickable" id="map_attraction_location_3" transform="matrix(1, 0, 0, 1, 345, 665)" cx="0" cy="0" rx="5" ry="5"/>
        <text class="map_location_text" id="map_attraction_text_3" x="20" y="950">Duwiseb Castle</text>
    </g>
   
    <g>
        <ellipse class="map_attractions clickable" id="map_attraction_location_4" transform="matrix(1, 0, 0, 1, 305, 625)" cx="0" cy="0" rx="5" ry="5"/>
        <text class="map_location_text" id="map_attraction_text_4" x="20" y="950">Namib Sky Baloon Safaris</text>
    </g>
  
  
  
  
    <g>
        <ellipse class="map_attractions clickable" id="map_attraction_location_5" transform="matrix(1, 0, 0, 1, 340, 775)" cx="0" cy="0" rx="5" ry="5"/>
        <text class="map_location_text" id="map_attraction_text_5" x="20" y="950">Aus</text>
    </g>
  
    
    <g>
        <ellipse class="map_attractions clickable" id="map_attraction_location_6" transform="matrix(1, 0, 0, 1, 255, 770)" cx="0" cy="0" rx="5" ry="5"/>
        <text class="map_location_text" id="map_attraction_text_6" x="20" y="950">Lüderitz</text>
    </g> 
    
    
    
    
    <g>
        <ellipse class="map_attractions clickable" id="map_attraction_location_7" transform="matrix(1, 0, 0, 1, 380, 465)" cx="0" cy="0" rx="5" ry="5"/>
        <text class="map_location_text" id="map_attraction_text_7" x="20" y="950">Daan Viljoen Game Reserve</text>
    </g>
   
    <g>
        <ellipse class="map_attractions clickable" id="map_attraction_location_8" transform="matrix(1, 0, 0, 1, 395, 520)" cx="0" cy="0" rx="5" ry="5"/>
        <text class="map_location_text" id="map_attraction_text_8" x="20" y="950">Oanob Dam</text>
    </g>
   
    <g>
        <ellipse class="map_attractions clickable" id="map_attraction_location_9" transform="matrix(1, 0, 0, 1, 200, 330)" cx="0" cy="0" rx="5" ry="5"/>
        <text class="map_location_text" id="map_attraction_text_9" x="20" y="950">Organ Pipes</text>
    </g>

    <g>
        <ellipse class="map_attractions clickable" id="map_attraction_location_10" transform="matrix(1, 0, 0, 1, 210, 315)" cx="0" cy="0" rx="5" ry="5"/>
        <text class="map_location_text" id="map_attraction_text_10" x="20" y="950">Petrified Forest</text>
    </g>
       
    <g>
        <ellipse class="map_attractions clickable" id="map_attraction_location_11" transform="matrix(1, 0, 0, 1, 300, 410)" cx="0" cy="0" rx="5" ry="5"/>
        <text class="map_location_text" id="map_attraction_text_11" x="20" y="950">Mount Erongo</text>
    </g>
   
    <g>
        <ellipse class="map_attractions clickable" id="map_attraction_location_12" transform="matrix(1, 0, 0, 1, 270, 300)" cx="0" cy="0" rx="5" ry="5"/>
        <text class="map_location_text" id="map_attraction_text_12" x="20" y="950">Vingerklip</text>
    </g>
        
    <g>
        <ellipse class="map_attractions clickable" id="map_attraction_location_13" transform="matrix(1, 0, 0, 1, 270, 420)" cx="0" cy="0" rx="5" ry="5"/>
        <text class="map_location_text" id="map_attraction_text_13" x="20" y="950">Spitzkoppe</text>
    </g>
      
      
    <g>
        <ellipse class="map_attractions clickable" id="map_attraction_location_14" transform="matrix(1, 0, 0, 1, 460, 260)" cx="0" cy="0" rx="5" ry="5"/>
        <text class="map_location_text" id="map_attraction_text_14" x="20" y="950">Hoba Meteorite</text>
    </g>
       
    <g>
        <ellipse class="map_attractions clickable" id="map_attraction_location_15" transform="matrix(1, 0, 0, 1, 420, 310)" cx="0" cy="0" rx="5" ry="5"/>
        <text class="map_location_text" id="map_attraction_text_15" x="20" y="950">Dinosaur Footprints</text>
    </g>
       
    <g>
        <ellipse class="map_attractions clickable" id="map_attraction_location_16" transform="matrix(1, 0, 0, 1, 445, 240)" cx="0" cy="0" rx="5" ry="5"/>
        <text class="map_location_text" id="map_attraction_text_16" x="20" y="950">Dragon's Breath Cave</text>
    </g> 
        
    <g>
        <ellipse class="map_attractions clickable" id="map_attraction_location_17" transform="matrix(1, 0, 0, 1, 725, 145)" cx="0" cy="0" rx="5" ry="5"/>
        <text class="map_location_text" id="map_attraction_text_17" x="20" y="950">Popa Falls</text>
    </g>

</svg>
